<?xml version="1.0" encoding="UTF-8"?>
<svg version="1.1" xmlns="http://www.w3.org/2000/svg" width="372" height="176">
<path d="M0 0 C122.76 0 245.52 0 372 0 C372 58.08 372 116.16 372 176 C249.24 176 126.48 176 0 176 C0 117.92 0 59.84 0 0 Z " fill="#F7F7F7" transform="translate(0,0)"/>
<path d="M0 0 C1.40726349 -0.03366417 1.40726349 -0.03366417 2.84295654 -0.06800842 C3.85545471 -0.07964523 4.86795288 -0.09128204 5.91113281 -0.10327148 C6.95569641 -0.1170433 8.00026001 -0.13081512 9.07647705 -0.14500427 C11.28888648 -0.16828964 13.50136625 -0.18554823 15.71386719 -0.19726562 C19.08822798 -0.22415779 22.45943853 -0.29904784 25.83300781 -0.37475586 C27.98402841 -0.39141638 30.13507376 -0.4051817 32.28613281 -0.41577148 C33.79273468 -0.46055382 33.79273468 -0.46055382 35.32977295 -0.50624084 C40.68543762 -0.47285658 43.64862778 -0.00665089 47.55664062 3.82275391 C50.36425781 7.04691541 50.36425781 7.04691541 50.36425781 8.33813477 C47.72425781 8.33813477 45.08425781 8.33813477 42.36425781 8.33813477 C42.36425781 17.24813477 42.36425781 26.15813477 42.36425781 35.33813477 C43.02425781 35.33813477 43.68425781 35.33813477 44.36425781 35.33813477 C44.42484375 35.96461914 44.48542969 36.59110352 44.54785156 37.23657227 C44.63164062 38.05383789 44.71542969 38.87110352 44.80175781 39.71313477 C44.88296875 40.52524414 44.96417969 41.33735352 45.04785156 42.17407227 C45.25515895 44.38086282 45.25515895 44.38086282 46.36425781 46.33813477 C46.44999176 48.58934219 46.47137969 50.84312779 46.46191406 53.09594727 C46.46049911 53.75899872 46.45908417 54.42205017 46.45762634 55.10519409 C46.45202535 57.22455339 46.43947282 59.34380735 46.42675781 61.46313477 C46.42174293 62.89933116 46.41718001 64.3355292 46.41308594 65.77172852 C46.40290614 69.29393725 46.38333119 72.81591798 46.36425781 76.33813477 C50.65425781 76.33813477 54.94425781 76.33813477 59.36425781 76.33813477 C59.50863281 75.03875977 59.65300781 73.73938477 59.80175781 72.40063477 C60.23925781 68.46313477 60.23925781 68.46313477 61.36425781 67.33813477 C63.69723214 67.29720539 66.03131006 67.29571753 68.36425781 67.33813477 C68.36425781 70.63813477 68.36425781 73.93813477 68.36425781 77.33813477 C42.62425781 77.33813477 16.88425781 77.33813477 -9.63574219 77.33813477 C-9.63574219 63.47813477 -9.63574219 49.61813477 -9.63574219 35.33813477 C-7.65574219 35.33813477 -5.67574219 35.33813477 -3.63574219 35.33813477 C-3.63574219 26.42813477 -3.63574219 17.51813477 -3.63574219 8.33813477 C-6.60574219 8.33813477 -9.57574219 8.33813477 -12.63574219 8.33813477 C-6.0269561 0.12180611 -6.0269561 0.12180611 0 0 Z " fill="#03699B" transform="translate(190.6357421875,76.661865234375)"/>
<path d="M0 0 C0.33 0 0.66 0 1 0 C1.268125 1.010625 1.53625 2.02125 1.8125 3.0625 C3.67598664 9.9220538 3.67598664 9.9220538 7.6875 15.5625 C9 17 9 17 9.4375 19.875 C9 23 9 23 7 25.3125 C4.47618116 28.70388156 4.5939371 30.80471382 4.6640625 34.9140625 C4.9002172 37.30028581 4.9002172 37.30028581 7 40 C7.77540581 47.20671284 6.90024894 54.51889444 6.08203125 61.6875 C5.33004252 68.54514487 4.69415473 75.40140597 4.18359375 82.28125 C4.12102386 83.12409546 4.05845398 83.96694092 3.99398804 84.83532715 C3.741423 88.27488526 3.49375197 91.71478309 3.24731445 95.15478516 C3.06260461 97.71801858 2.87331103 100.28088312 2.68359375 102.84375 C2.62940781 103.6217395 2.57522186 104.399729 2.51939392 105.20129395 C2.28715449 108.32170406 1.9940996 111.0177012 1 114 C2.65 114.66 4.3 115.32 6 116 C6 116.33 6 116.66 6 117 C2.37 117 -1.26 117 -5 117 C-5.82683025 110.40595519 -6.19805124 103.9191672 -6.31640625 97.27734375 C-6.33718735 96.29125626 -6.35796844 95.30516876 -6.37937927 94.28919983 C-6.44420918 91.17203015 -6.50344684 88.05478392 -6.5625 84.9375 C-6.60574869 82.8105393 -6.64936489 80.68358603 -6.69335938 78.55664062 C-6.79982127 73.37117006 -6.90127157 68.18562334 -7 63 C-7.81118598 65.87689583 -8.61933747 68.75458721 -9.42578125 71.6328125 C-9.65430786 72.44210205 -9.88283447 73.2513916 -10.11828613 74.08520508 C-11.50441365 79.04303449 -12.71357039 83.96892611 -13.54296875 89.0546875 C-14 91 -14 91 -14.9296875 92.76171875 C-16.77952762 96.63018002 -17.48337262 100.89859887 -18.41210938 105.06835938 C-19.65343696 110.345238 -20.95567194 114.55401186 -25.5625 117.8125 C-28 119 -28 119 -30 119 C-28.125 114.125 -28.125 114.125 -27 113 C-26.69024287 110.75502757 -26.42956882 108.50327614 -26.1875 106.25 C-25.11429464 96.98437924 -23.34944094 87.88642269 -21.54101562 78.74072266 C-20.63744466 74.16333655 -19.75443418 69.58207545 -18.875 65 C-18.70500488 64.1236792 -18.53500977 63.2473584 -18.35986328 62.34448242 C-17.4219221 57.44980523 -16.6448373 52.56875262 -16 47.625 C-15.2467262 42.53049032 -14.11581407 39.12387156 -11 35 C-8.875 33.8125 -8.875 33.8125 -7 33 C-5.73195434 30.9664052 -5.73195434 30.9664052 -5 29 C-4.34 29 -3.68 29 -3 29 C-2.896875 28.05125 -2.79375 27.1025 -2.6875 26.125 C-2.12791495 22.0241603 -0.8642472 18.23760078 0.4765625 14.33203125 C1.05713819 11.74543656 0.75062046 10.50041121 0 8 C-0.12205329 5.32459184 -0.04467313 2.68038762 0 0 Z " fill="#253137" transform="translate(161,37)"/>
<path d="M0 0 C1.40726349 -0.03366417 1.40726349 -0.03366417 2.84295654 -0.06800842 C3.85545471 -0.07964523 4.86795288 -0.09128204 5.91113281 -0.10327148 C6.95569641 -0.1170433 8.00026001 -0.13081512 9.07647705 -0.14500427 C11.28888648 -0.16828964 13.50136625 -0.18554823 15.71386719 -0.19726562 C19.08822798 -0.22415779 22.45943853 -0.29904784 25.83300781 -0.37475586 C27.98402841 -0.39141638 30.13507376 -0.4051817 32.28613281 -0.41577148 C33.79273468 -0.46055382 33.79273468 -0.46055382 35.32977295 -0.50624084 C40.68543762 -0.47285658 43.64862778 -0.00665089 47.55664062 3.82275391 C50.36425781 7.04691541 50.36425781 7.04691541 50.36425781 8.33813477 C47.72425781 8.33813477 45.08425781 8.33813477 42.36425781 8.33813477 C42.36425781 17.24813477 42.36425781 26.15813477 42.36425781 35.33813477 C27.18425781 35.33813477 12.00425781 35.33813477 -3.63574219 35.33813477 C-3.63574219 26.42813477 -3.63574219 17.51813477 -3.63574219 8.33813477 C-6.60574219 8.33813477 -9.57574219 8.33813477 -12.63574219 8.33813477 C-6.0269561 0.12180611 -6.0269561 0.12180611 0 0 Z " fill="#0185C5" transform="translate(190.6357421875,76.661865234375)"/>
<path d="M0 0 C2.64752004 2.57784846 4.94432065 4.91648098 7 8 C10.41021661 9.39757009 13.8275721 10.59013629 17.32226562 11.75 C19.24447616 12.42041675 21.12658771 13.20333298 23 14 C23.33 14.99 23.66 15.98 24 17 C22.4840625 17.061875 22.4840625 17.061875 20.9375 17.125 C16.14097918 17.76127317 13.32485442 20.69535746 10 24 C12.64 24.33 15.28 24.66 18 25 C18 33.91 18 42.82 18 52 C16.02 52 14.04 52 12 52 C12 65.86 12 79.72 12 94 C-2 94 -2 94 -7 91 C-6.75923568 86.57450407 -6.51059548 82.14953349 -6.25537109 77.72485352 C-6.16999426 76.22692171 -6.08658583 74.72887612 -6.00537109 73.23071289 C-5.51377573 64.19082031 -4.76082853 55.2765869 -3.45898438 46.31518555 C-0.46975019 29.55571965 -0.46975019 29.55571965 -4 14 C-4.75447546 9.31523374 -4.61752228 5.94558099 -2 1.9375 C-1.34 1.298125 -0.68 0.65875 0 0 Z " fill="#EEF0F1" transform="translate(169,60)"/>
<path d="M0 0 C1.32 0.33 2.64 0.66 4 1 C4 2.65 4 4.3 4 6 C6.31 6.33 8.62 6.66 11 7 C11.33 6.34 11.66 5.68 12 5 C12.33 5.33 12.66 5.66 13 6 C13.2475 5.195625 13.495 4.39125 13.75 3.5625 C15 1 15 1 17.125 0.1875 C17.74375 0.125625 18.3625 0.06375 19 0 C18.35001982 3.50989295 16.84608407 5.97242212 15 9 C13.06645439 12.86709123 12.98734329 14.83685575 14 19 C13.67 19.66 13.34 20.32 13 21 C12.34 21 11.68 21 11 21 C9.18397483 25.53832753 9.18397483 25.53832753 10 30 C7.69 30.33 5.38 30.66 3 31 C2.34 33.64 1.68 36.28 1 39 C-3.29 39 -7.58 39 -12 39 C-12.06058594 36.86917969 -12.12117187 34.73835938 -12.18359375 32.54296875 C-12.24541415 30.47774821 -12.30878897 28.41258082 -12.37231445 26.34741211 C-12.41560793 24.91288997 -12.45728699 23.47831816 -12.49731445 22.04370117 C-12.55515267 19.9808048 -12.61880753 17.91815717 -12.68359375 15.85546875 C-12.73858032 13.99378052 -12.73858032 13.99378052 -12.79467773 12.09448242 C-12.87144121 8.96446653 -12.87144121 8.96446653 -14 6 C-9.38 6 -4.76 6 0 6 C0 4.02 0 2.04 0 0 Z " fill="#EEEEEE" transform="translate(249,114)"/>
<path d="M0 0 C1.40726349 -0.03366417 1.40726349 -0.03366417 2.84295654 -0.06800842 C3.85545471 -0.07964523 4.86795288 -0.09128204 5.91113281 -0.10327148 C6.95569641 -0.1170433 8.00026001 -0.13081512 9.07647705 -0.14500427 C11.28888648 -0.16828964 13.50136625 -0.18554823 15.71386719 -0.19726562 C19.08822798 -0.22415779 22.45943853 -0.29904784 25.83300781 -0.37475586 C27.98402841 -0.39141638 30.13507376 -0.4051817 32.28613281 -0.41577148 C33.79273468 -0.46055382 33.79273468 -0.46055382 35.32977295 -0.50624084 C40.68543762 -0.47285658 43.64862778 -0.00665089 47.55664062 3.82275391 C50.36425781 7.04691541 50.36425781 7.04691541 50.36425781 8.33813477 C47.39425781 8.33813477 44.42425781 8.33813477 41.36425781 8.33813477 C41.36425781 8.99813477 41.36425781 9.65813477 41.36425781 10.33813477 C36.00741932 10.38754859 30.65071331 10.42386084 25.29370117 10.44799805 C23.47108652 10.45805967 21.64848802 10.47171037 19.82592773 10.48901367 C17.20715347 10.51325498 14.5885925 10.52461615 11.96972656 10.53344727 C10.74614693 10.54893112 10.74614693 10.54893112 9.49784851 10.56472778 C5.59295026 10.56550337 3.68901773 10.55464138 0.36425781 8.33813477 C-0.29574219 7.34813477 -0.95574219 6.35813477 -1.63574219 5.33813477 C-2.29574219 5.99813477 -2.95574219 6.65813477 -3.63574219 7.33813477 C-6.32413603 7.60805383 -8.92716155 7.42550833 -11.63574219 7.33813477 C-8.14954094 2.77000899 -5.91089154 0.11946042 0 0 Z " fill="#0385C5" transform="translate(190.6357421875,76.661865234375)"/>
<path d="M0 0 C0.33 0 0.66 0 1 0 C1.33 18.48 1.66 36.96 2 56 C-8.395 56.495 -8.395 56.495 -19 57 C-17.68 55.68 -16.36 54.36 -15 53 C-13.73367876 50.06329911 -13.73367876 50.06329911 -12.875 46.8125 C-12.545 45.66394531 -12.215 44.51539063 -11.875 43.33203125 C-10.97489711 39.90440728 -10.15837929 36.48051219 -9.4921875 33 C-9 31 -9 31 -8.04541016 28.68164062 C-7.05894112 26.15119319 -6.38080065 23.73882642 -5.78125 21.09375 C-5.46607422 19.73056641 -5.46607422 19.73056641 -5.14453125 18.33984375 C-4.93183594 17.40269531 -4.71914062 16.46554688 -4.5 15.5 C-4.07662221 13.63457179 -3.64964921 11.76995519 -3.21875 9.90625 C-3.03248047 9.08447266 -2.84621094 8.26269531 -2.65429688 7.41601562 C-1.95828115 4.84595157 -1.0327913 2.45206054 0 0 Z " fill="#F1F1F2" transform="translate(154,98)"/>
<path d="M0 0 C0.33 1.32 0.66 2.64 1 4 C-1.31 4 -3.62 4 -6 4 C-5.855625 4.92941406 -5.71125 5.85882813 -5.5625 6.81640625 C-5.2840625 8.67072266 -5.2840625 8.67072266 -5 10.5625 C-4.814375 11.78066406 -4.62875 12.99882813 -4.4375 14.25390625 C-3.6872043 20.67831322 -3.73030489 25.28797055 -6.375 31.25 C-6.81585938 32.26578125 -7.25671875 33.2815625 -7.7109375 34.328125 C-9 37 -9 37 -11 40 C-11.66 40 -12.32 40 -13 40 C-13.33 39.34 -13.66 38.68 -14 38 C-16.01669827 36.86649466 -16.01669827 36.86649466 -18 36 C-17.88623383 33.87436897 -17.75864369 31.7494739 -17.625 29.625 C-17.55539063 28.44164063 -17.48578125 27.25828125 -17.4140625 26.0390625 C-17 23 -17 23 -15 21 C-14.50314037 17.89002676 -14.16572042 14.80771321 -13.87695312 11.67382812 C-13.40879364 7.40978092 -12.59712446 4.43571404 -10 1 C-6.1496895 -1.56687367 -4.41430237 -0.83288724 0 0 Z " fill="#232E33" transform="translate(159,31)"/>
<path d="M0 0 C2.75569447 2.18159145 4.43588747 3.87177494 6 7 C6.30442659 11.46492339 5.5883272 14.8306411 4 19 C-5.7326087 21.35942029 -5.7326087 21.35942029 -9.74609375 18.953125 C-11.93439375 17.16889958 -13.72756819 15.54486363 -15 13 C-15.4136968 8.34591099 -14.81070393 5.74760524 -12 2 C-7.99745384 -0.66836411 -4.70686701 -0.8340238 0 0 Z " fill="#E6ECEF" transform="translate(136,22)"/>
<path d="M0 0 C2.23081472 3.34622209 2.14648499 6.13042105 1.97265625 10 C1.90810379 12.00606905 1.90810379 12.00606905 2.56396484 13.86816406 C3.07302159 16.35701261 2.75277452 17.69838447 2.00390625 20.109375 C1.77509766 20.86347656 1.54628906 21.61757813 1.31054688 22.39453125 C1.06369141 23.17183594 0.81683594 23.94914062 0.5625 24.75 C0.31951172 25.54277344 0.07652344 26.33554687 -0.17382812 27.15234375 C-0.77354195 29.10435346 -1.38558121 31.05256883 -2 33 C-2.66 33 -3.32 33 -4 33 C-4.2475 33.804375 -4.495 34.60875 -4.75 35.4375 C-5.36875 36.7059375 -5.36875 36.7059375 -6 38 C-8.0625 38.6875 -8.0625 38.6875 -10 39 C-10.33 39.66 -10.66 40.32 -11 41 C-11 40.34 -11 39.68 -11 39 C-11.99 38.67 -12.98 38.34 -14 38 C-13.34 38 -12.68 38 -12 38 C-11.7525 37.195625 -11.505 36.39125 -11.25 35.5625 C-10 32 -10 32 -8.99414062 30.07226562 C-5.76592745 23.83028073 -5.64438362 18.84441063 -6.25 11.9375 C-6.31574219 10.97650391 -6.38148438 10.01550781 -6.44921875 9.02539062 C-6.61248851 6.68130333 -6.79636291 4.34086593 -7 2 C-4.69 2 -2.38 2 0 2 C0 1.34 0 0.68 0 0 Z " fill="#D6ACA1" transform="translate(160,33)"/>
<path d="M0 0 C0.33 0 0.66 0 1 0 C1.268125 1.010625 1.53625 2.02125 1.8125 3.0625 C3.67598664 9.9220538 3.67598664 9.9220538 7.6875 15.5625 C9 17 9 17 9.4375 19.875 C9 23 9 23 7.0625 25.3125 C4.11713221 29.15040349 4.28563008 32.21569613 4 37 C-0.95 37 -5.9 37 -11 37 C-11 36.34 -11 35.68 -11 35 C-10.38125 34.7525 -9.7625 34.505 -9.125 34.25 C-6.64931313 32.79371361 -6.04874998 31.62187494 -5 29 C-4.34 29 -3.68 29 -3 29 C-2.8453125 27.576875 -2.8453125 27.576875 -2.6875 26.125 C-2.12791495 22.0241603 -0.8642472 18.23760078 0.4765625 14.33203125 C1.05713819 11.74543656 0.75062046 10.50041121 0 8 C-0.12205329 5.32459184 -0.04467313 2.68038762 0 0 Z " fill="#1686BD" transform="translate(161,37)"/>
<path d="M0 0 C1.32 0.33 2.64 0.66 4 1 C4 2.65 4 4.3 4 6 C6.31 6.33 8.62 6.66 11 7 C11.33 6.34 11.66 5.68 12 5 C12.33 5.33 12.66 5.66 13 6 C13.37125 4.7934375 13.37125 4.7934375 13.75 3.5625 C15 1 15 1 17.125 0.1875 C17.74375 0.125625 18.3625 0.06375 19 0 C18.35001982 3.50989295 16.84608407 5.97242212 15 9 C13.06645439 12.86709123 12.98734329 14.83685575 14 19 C13.67 19.66 13.34 20.32 13 21 C12.34 21 11.68 21 11 21 C11 21.66 11 22.32 11 23 C9.35 23.66 7.7 24.32 6 25 C5.87625 24.071875 5.87625 24.071875 5.75 23.125 C5.21189267 20.81653196 5.21189267 20.81653196 3 20 C1 19 1 19 0.25 16.875 C0.1675 16.25625 0.085 15.6375 0 15 C0.66 15 1.32 15 2 15 C1.855625 14.25234375 1.71125 13.5046875 1.5625 12.734375 C1.2840625 11.25710937 1.2840625 11.25710937 1 9.75 C0.814375 8.77546875 0.62875 7.8009375 0.4375 6.796875 C0 4 0 4 0 0 Z " fill="#DFEAEE" transform="translate(249,114)"/>
<path d="M0 0 C0.66 0 1.32 0 2 0 C2.06058594 0.62648438 2.12117187 1.25296875 2.18359375 1.8984375 C2.26738281 2.71570313 2.35117188 3.53296875 2.4375 4.375 C2.51871094 5.18710938 2.59992188 5.99921875 2.68359375 6.8359375 C2.89090114 9.04272805 2.89090114 9.04272805 4 11 C4.08573394 13.25120742 4.10712188 15.50499303 4.09765625 17.7578125 C4.0962413 18.42086395 4.09482635 19.08391541 4.09336853 19.76705933 C4.08776754 21.88641863 4.075215 24.00567259 4.0625 26.125 C4.05748512 27.56119639 4.05292219 28.99739444 4.04882812 30.43359375 C4.03864833 33.95580248 4.01907338 37.47778321 4 41 C8.29 41 12.58 41 17 41 C17.2165625 39.0509375 17.2165625 39.0509375 17.4375 37.0625 C17.875 33.125 17.875 33.125 19 32 C21.33297433 31.95907063 23.66705225 31.95758277 26 32 C26 35.3 26 38.6 26 42 C17.75 42 9.5 42 1 42 C0.505 21.21 0.505 21.21 0 0 Z " fill="#C2D6E1" transform="translate(233,112)"/>
<path d="M0 0 C0.33 0 0.66 0 1 0 C1 8.91 1 17.82 1 27 C-1.64 27 -4.28 27 -7 27 C-6.70703125 24.94921875 -6.4140625 22.8984375 -6.12109375 20.84765625 C-6.08113281 20.23792969 -6.04117188 19.62820312 -6 19 C-6.33 18.67 -6.66 18.34 -7 18 C-7.23653523 15.47403741 -7.42173692 12.96892793 -7.5625 10.4375 C-7.60568359 9.72658203 -7.64886719 9.01566406 -7.69335938 8.28320312 C-7.79971777 6.52238088 -7.90038846 4.7612168 -8 3 C-5.36 3 -2.72 3 0 3 C0 2.01 0 1.02 0 0 Z " fill="#0186C9" transform="translate(232,85)"/>
<path d="M0 0 C2.64752004 2.57784846 4.94432065 4.91648098 7 8 C10.41021661 9.39757009 13.8275721 10.59013629 17.32226562 11.75 C19.24447616 12.42041675 21.12658771 13.20333298 23 14 C23.33 14.99 23.66 15.98 24 17 C3.77850867 15.81233899 3.77850867 15.81233899 0.5625 12.53515625 C-0.5625 10.875 -0.5625 10.875 -2 8 C-2.33 9.98 -2.66 11.96 -3 14 C-3.33 14 -3.66 14 -4 14 C-4.63019694 5.96498906 -4.63019694 5.96498906 -2 1.9375 C-1.34 1.298125 -0.68 0.65875 0 0 Z " fill="#F7B199" transform="translate(169,60)"/>
<path d="M0 0 C0 1.98 0 3.96 0 6 C0.99 6 1.98 6 3 6 C1.50829734 10.9723422 -0.60457417 15.41845739 -3 20 C-3.66 20 -4.32 20 -5 20 C-8.77689243 9.88332385 -8.77689243 9.88332385 -8 5 C-4.95652174 0 -4.95652174 0 0 0 Z " fill="#0D88C3" transform="translate(151,51)"/>
<path d="M0 0 C3.875 1.875 3.875 1.875 5 3 C7.88252645 3.16023562 10.74378527 3.25954029 13.62890625 3.31640625 C14.92525246 3.3475779 14.92525246 3.3475779 16.24778748 3.37937927 C19.01927445 3.44497114 21.79085921 3.50380418 24.5625 3.5625 C26.43685923 3.60567608 28.31120843 3.64929006 30.18554688 3.69335938 C34.79026336 3.80066227 39.39507858 3.90190215 44 4 C43.67 4.99 43.34 5.98 43 7 C37.64316151 7.04941382 32.2864555 7.08572607 26.92944336 7.10986328 C25.10682871 7.11992491 23.28423021 7.1335756 21.46166992 7.15087891 C18.84289565 7.17512021 16.22433469 7.18648138 13.60546875 7.1953125 C12.38188911 7.21079636 12.38188911 7.21079636 11.1335907 7.22659302 C7.22869244 7.2273686 5.32475992 7.21650661 2 5 C0.8125 2.375 0.8125 2.375 0 0 Z " fill="#006B9C" transform="translate(189,80)"/>
<path d="M0 0 C0.33 0.66 0.66 1.32 1 2 C-1.97 1.505 -1.97 1.505 -5 1 C-4.01 2.98 -3.02 4.96 -2 7 C-5.875 5.25 -5.875 5.25 -7 3 C-8.95894361 3.11306697 -8.95894361 3.11306697 -11 4 C-12.29660434 6.49034386 -12.29660434 6.49034386 -13 9 C-11.741875 8.938125 -10.48375 8.87625 -9.1875 8.8125 C-5.29799613 8.81939628 -5.29799613 8.81939628 -2.9375 10.25 C-2 12 -2 12 -2.25 14.125 C-3 16 -3 16 -4 17 C-6.8125 17.375 -6.8125 17.375 -10 17 C-12.4375 15.0625 -12.4375 15.0625 -14 12 C-14.33907351 8.77018118 -14.07426962 6.06852546 -13 3 C-8.77498538 -1.22501462 -5.67899897 -1.55894089 0 0 Z " fill="#E0E0E1" transform="translate(219,52)"/>
<path d="M0 0 C2.2535202 3.38028029 2.11314298 6.19035736 2.00390625 10.09375 C1.99959628 12.19701508 2.3351193 14.00535789 3 16 C1.6078125 15.7215625 1.6078125 15.7215625 0.1875 15.4375 C-3.01343771 14.75876119 -3.01343771 14.75876119 -6 16 C-6.33 11.38 -6.66 6.76 -7 2 C-4.69 2 -2.38 2 0 2 C0 1.34 0 0.68 0 0 Z " fill="#C58E81" transform="translate(160,33)"/>
<path d="M0 0 C0 2.64 0 5.28 0 8 C-4.95 8 -9.9 8 -15 8 C-15 7.34 -15 6.68 -15 6 C-14.38125 5.7525 -13.7625 5.505 -13.125 5.25 C-10.61289704 3.77229238 -10.23892656 2.56044823 -9 0 C-5.52176885 -1.15941038 -3.54104422 -0.70820884 0 0 Z " fill="#098BCC" transform="translate(165,66)"/>
<path d="M0 0 C0.33 0 0.66 0 1 0 C0.8612119 3.60447434 0.71276065 7.20848712 0.5625 10.8125 C0.52318359 11.83666016 0.48386719 12.86082031 0.44335938 13.91601562 C0.40146484 14.89892578 0.35957031 15.88183594 0.31640625 16.89453125 C0.27974854 17.80050049 0.24309082 18.70646973 0.20532227 19.63989258 C0 22 0 22 -1 25 C1.475 25.99 1.475 25.99 4 27 C4 27.33 4 27.66 4 28 C0.37 28 -3.26 28 -7 28 C-7 25.03 -7 22.06 -7 19 C-5.02 19 -3.04 19 -1 19 C-1.01160156 18.13117188 -1.02320313 17.26234375 -1.03515625 16.3671875 C-1.04417969 15.21476563 -1.05320313 14.06234375 -1.0625 12.875 C-1.07410156 11.73804688 -1.08570313 10.60109375 -1.09765625 9.4296875 C-1.005327 6.1870844 -0.61389906 3.18067388 0 0 Z " fill="#349FD3" transform="translate(163,126)"/>
<path d="M0 0 C1.134375 0.020625 2.26875 0.04125 3.4375 0.0625 C3.4375 3.3625 3.4375 6.6625 3.4375 10.0625 C0.4675 10.0625 -2.5025 10.0625 -5.5625 10.0625 C-4.57834158 0.08032178 -4.57834158 0.08032178 0 0 Z " fill="#445C68" transform="translate(255.5625,143.9375)"/>
<path d="M0 0 C1.41112312 0.00022659 1.41112312 0.00022659 2.85075378 0.00045776 C3.86333755 0.01078033 4.87592133 0.02110291 5.91918945 0.03173828 C7.47764336 0.03598312 7.47764336 0.03598312 9.06758118 0.04031372 C12.38932767 0.05151797 15.71080556 0.07662314 19.0324707 0.10205078 C21.28311785 0.11208026 23.53376923 0.12120616 25.78442383 0.12939453 C31.30469793 0.15145808 36.82481513 0.18493807 42.3449707 0.22705078 C42.3449707 0.55705078 42.3449707 0.88705078 42.3449707 1.22705078 C27.1649707 1.22705078 11.9849707 1.22705078 -3.6550293 1.22705078 C-3.6550293 3.20705078 -3.6550293 5.18705078 -3.6550293 7.22705078 C-6.2950293 7.22705078 -8.9350293 7.22705078 -11.6550293 7.22705078 C-8.15476856 2.64050222 -5.95166917 -0.03191244 0 0 Z " fill="#127FB4" transform="translate(190.655029296875,76.77294921875)"/>
<path d="M0 0 C0.33 0 0.66 0 1 0 C1 8.91 1 17.82 1 27 C-1.64 27 -4.28 27 -7 27 C-6.67 24.36 -6.34 21.72 -6 19 C-4.02 19 -2.04 19 0 19 C0 12.73 0 6.46 0 0 Z " fill="#2693C8" transform="translate(232,85)"/>
<path d="M0 0 C0.33 0 0.66 0 1 0 C1 1.65 1 3.3 1 5 C2.98 5 4.96 5 7 5 C5.7922599 9.95809095 4.94566427 13.2087299 0.9375 16.5625 C-2 18 -2 18 -4 18 C-2.125 13.125 -2.125 13.125 -1 12 C-0.76572222 9.98405418 -0.58663876 7.961526 -0.4375 5.9375 C-0.31181641 4.28041016 -0.31181641 4.28041016 -0.18359375 2.58984375 C-0.12300781 1.73519531 -0.06242188 0.88054687 0 0 Z " fill="#1C8DC4" transform="translate(135,138)"/>
<path d="M0 0 C0.33 0 0.66 0 1 0 C1.02578125 0.77085938 1.0515625 1.54171875 1.078125 2.3359375 C1.13484375 3.33882812 1.1915625 4.34171875 1.25 5.375 C1.29640625 6.37273438 1.3428125 7.37046875 1.390625 8.3984375 C1.72160885 11.1526477 1.72160885 11.1526477 4.046875 12.3515625 C4.69140625 12.56554688 5.3359375 12.77953125 6 13 C6 14.98 6 16.96 6 19 C6.66 19.33 7.32 19.66 8 20 C7.01 20 6.02 20 5 20 C5 18.02 5 16.04 5 14 C1.34683329 15.24976756 0.21934164 15.67098753 -2 19 C-2.02415584 21.9824577 -2.02415584 21.9824577 -1.625 25.1875 C-1.51414063 26.27417969 -1.40328125 27.36085938 -1.2890625 28.48046875 C-1.19367188 29.31191406 -1.09828125 30.14335938 -1 31 C-2.32 30.67 -3.64 30.34 -5 30 C-4.88623383 27.87436897 -4.75864369 25.7494739 -4.625 23.625 C-4.55539063 22.44164063 -4.48578125 21.25828125 -4.4140625 20.0390625 C-4 17 -4 17 -2 15 C-1.5342637 12.44132526 -1.16515752 9.95312092 -0.875 7.375 C-0.78863281 6.66859375 -0.70226562 5.9621875 -0.61328125 5.234375 C-0.40118817 3.49049859 -0.19959009 1.7453516 0 0 Z " fill="#345462" transform="translate(146,37)"/>
<path d="M0 0 C2 2 4 4 6 6 C6.33 5.34 6.66 4.68 7 4 C7.66 4 8.32 4 9 4 C8.95875 5.216875 8.9175 6.43375 8.875 7.6875 C8.88125078 11.21293868 9.20450282 13.8815049 11 17 C11.99 17.33 12.98 17.66 14 18 C12.35 19.65 10.7 21.3 9 23 C8.566875 21.39125 8.566875 21.39125 8.125 19.75 C7.26641633 16.88805444 6.3557137 14.61459071 5 12 C5 11.34 5 10.68 5 10 C4.20774838 8.64185436 3.36771699 7.31121678 2.5 6 C0 2.22222222 0 2.22222222 0 0 Z " fill="#B8D4E1" transform="translate(244,92)"/>
<path d="M0 0 C2 1.5 2 1.5 4 4 C4.35800135 6.75871627 4.18660165 9.20097524 4 12 C2.125 11.6875 2.125 11.6875 0 11 C-0.66 10.01 -1.32 9.02 -2 8 C-2.33 9.98 -2.66 11.96 -3 14 C-3.33 14 -3.66 14 -4 14 C-4.63019694 5.96498906 -4.63019694 5.96498906 -2 1.9375 C-1.34 1.298125 -0.68 0.65875 0 0 Z " fill="#F7B098" transform="translate(169,60)"/>
<path d="M0 0 C2.31 0 4.62 0 7 0 C7 2.97 7 5.94 7 9 C4.69 9 2.38 9 0 9 C0 6.03 0 3.06 0 0 Z " fill="#12364B" transform="translate(197,113)"/>
<path d="M0 0 C1.98 0 3.96 0 6 0 C6 2.97 6 5.94 6 9 C4.02 9 2.04 9 0 9 C0 6.03 0 3.06 0 0 Z " fill="#193342" transform="translate(197,145)"/>
<path d="M0 0 C3.875 1.875 3.875 1.875 5 3 C7.88252645 3.16023562 10.74378527 3.25954029 13.62890625 3.31640625 C14.92525246 3.3475779 14.92525246 3.3475779 16.24778748 3.37937927 C19.01927445 3.44497114 21.79085921 3.50380418 24.5625 3.5625 C26.43685923 3.60567608 28.31120843 3.64929006 30.18554688 3.69335938 C34.79026336 3.80066227 39.39507858 3.90190215 44 4 C44 4.33 44 4.66 44 5 C30.47 5.33 16.94 5.66 3 6 C2.01 4.02 1.02 2.04 0 0 Z " fill="#0377AE" transform="translate(189,80)"/>
<path d="M0 0 C-0.33 1.98 -0.66 3.96 -1 6 C-1.66 6 -2.32 6 -3 6 C-3 6.66 -3 7.32 -3 8 C-4.65 8.66 -6.3 9.32 -8 10 C-9.42944945 7.64561267 -10.08661261 6.51967567 -9.625 3.75 C-9.41875 3.1725 -9.2125 2.595 -9 2 C-8.34 2.66 -7.68 3.32 -7 4 C-6.21625 3.34 -5.4325 2.68 -4.625 2 C-2 0 -2 0 0 0 Z " fill="#89BCCD" transform="translate(263,129)"/>
<path d="M0 0 C0.99 0 1.98 0 3 0 C5.29013653 3.4352048 5.17842973 4.985331 5 9 C3.34385343 9.38218767 1.67542976 9.71395102 0 10 C-1 9 -1 9 -1.125 5.5625 C-1 2 -1 2 0 0 Z " fill="#EAA594" transform="translate(155,36)"/>
<path d="M0 0 C0.33 1.32 0.66 2.64 1 4 C-1.31 4 -3.62 4 -6 4 C-6.33 4.66 -6.66 5.32 -7 6 C-7 5.01 -7 4.02 -7 3 C-8.65 3.66 -10.3 4.32 -12 5 C-9.30839269 -1.21140148 -6.29369588 -1.18748979 0 0 Z " fill="#384242" transform="translate(159,31)"/>
<path d="M0 0 C0.99 0.495 0.99 0.495 2 1 C2.73075648 3.3140622 3.40138258 5.64828869 4 8 C4.66 7.67 5.32 7.34 6 7 C5.34 11.62 4.68 16.24 4 21 C2.68 19.68 1.36 18.36 0 17 C0 16.34 0 15.68 0 15 C0.66 15 1.32 15 2 15 C1.855625 14.25234375 1.71125 13.5046875 1.5625 12.734375 C1.2840625 11.25710937 1.2840625 11.25710937 1 9.75 C0.814375 8.77546875 0.62875 7.8009375 0.4375 6.796875 C0 4 0 4 0 0 Z " fill="#B1C9D2" transform="translate(249,114)"/>
<path d="M0 0 C0.33 0 0.66 0 1 0 C0.67 7.26 0.34 14.52 0 22 C-1.98 21.67 -3.96 21.34 -6 21 C-6.33 21.99 -6.66 22.98 -7 24 C-7 22.35 -7 20.7 -7 19 C-5.02 19 -3.04 19 -1 19 C-1.01160156 18.13117188 -1.02320313 17.26234375 -1.03515625 16.3671875 C-1.04417969 15.21476563 -1.05320313 14.06234375 -1.0625 12.875 C-1.07410156 11.73804688 -1.08570313 10.60109375 -1.09765625 9.4296875 C-1.005327 6.1870844 -0.61389906 3.18067388 0 0 Z " fill="#3F6A7C" transform="translate(163,126)"/>
<path d="M0 0 C0.33 0.99 0.66 1.98 1 3 C1.99 3.33 2.98 3.66 4 4 C2.6875 6 2.6875 6 1 8 C0.01 8 -0.98 8 -2 8 C-2.33 8.66 -2.66 9.32 -3 10 C-3 9.34 -3 8.68 -3 8 C-3.99 7.67 -4.98 7.34 -6 7 C-5.34 7 -4.68 7 -4 7 C-3.71125 6.030625 -3.4225 5.06125 -3.125 4.0625 C-2 1 -2 1 0 0 Z " fill="#DEB6A6" transform="translate(152,64)"/>
<path d="M0 0 C0.33 0.66 0.66 1.32 1 2 C-0.21484375 4.8203125 -0.21484375 4.8203125 -1.9375 8.125 C-2.50339844 9.22070312 -3.06929687 10.31640625 -3.65234375 11.4453125 C-4.09707031 12.28835937 -4.54179687 13.13140625 -5 14 C-5.66 14 -6.32 14 -7 14 C-7.625 11.125 -7.625 11.125 -8 8 C-7.34 7.34 -6.68 6.68 -6 6 C-5.67 6.33 -5.34 6.66 -5 7 C-4.34 6.01 -3.68 5.02 -3 4 C-2.34 4 -1.68 4 -1 4 C-0.67 2.68 -0.34 1.36 0 0 Z " fill="#2A88B7" transform="translate(153,57)"/>
<path d="M0 0 C2.31 0.33 4.62 0.66 7 1 C7.33 2.65 7.66 4.3 8 6 C6.35 6.33 4.7 6.66 3 7 C0 3.375 0 3.375 0 0 Z " fill="#F0F0F0" transform="translate(214,53)"/>
<path d="M0 0 C0.33 0.99 0.66 1.98 1 3 C-0.29327628 5.02613283 -1.6296945 7.02514795 -3 9 C-3.76939681 11.22602615 -3.76939681 11.22602615 -4 13 C-4.66 13 -5.32 13 -6 13 C-6.33 10.36 -6.66 7.72 -7 5 C-6.01 5.495 -6.01 5.495 -5 6 C-4.731875 5.195625 -4.46375 4.39125 -4.1875 3.5625 C-3.5996875 2.2940625 -3.5996875 2.2940625 -3 1 C-2.01 0.67 -1.02 0.34 0 0 Z " fill="#85B6CC" transform="translate(267,114)"/>
<path d="M0 0 C0.33 0 0.66 0 1 0 C1.268125 1.010625 1.53625 2.02125 1.8125 3.0625 C3.720025 9.96392045 3.720025 9.96392045 7.75 15.6875 C8.36875 16.3371875 8.36875 16.3371875 9 17 C8.578125 19.08203125 8.578125 19.08203125 8 21 C2.31156974 13.79107738 -0.31459439 9.2805345 0 0 Z " fill="#3B4B53" transform="translate(161,37)"/>
<path d="M0 0 C5.53846154 -0.36923077 5.53846154 -0.36923077 7.875 1.5 C8.24625 1.995 8.6175 2.49 9 3 C8.01 3.99 7.02 4.98 6 6 C3.5625 5.25 3.5625 5.25 1 4 C0.1875 1.875 0.1875 1.875 0 0 Z " fill="#F7F7F7" transform="translate(207,62)"/>
<path d="M0 0 C0.33 0.99 0.66 1.98 1 3 C-0.4375 5.1875 -0.4375 5.1875 -2 7 C-4.31 6.67 -6.62 6.34 -9 6 C-9.33 5.01 -9.66 4.02 -10 3 C-6.7 2.67 -3.4 2.34 0 2 C0 1.34 0 0.68 0 0 Z " fill="#D6E1E9" transform="translate(134,147)"/>
<path d="M0 0 C-0.33 3.63 -0.66 7.26 -1 11 C-1.66 10.01 -2.32 9.02 -3 8 C-3.66 8.99 -4.32 9.98 -5 11 C-5.35061325 5.653148 -5.35061325 5.653148 -5 3 C-2.09375 0 -2.09375 0 0 0 Z " fill="#E0E1E3" transform="translate(138,123)"/>
<path d="M0 0 C0.66 0 1.32 0 2 0 C1.67 1.98 1.34 3.96 1 6 C3.64 6.33 6.28 6.66 9 7 C9 7.33 9 7.66 9 8 C4.05 8 -0.9 8 -6 8 C-6 7.34 -6 6.68 -6 6 C-5.38125 5.7525 -4.7625 5.505 -4.125 5.25 C-1.64931313 3.79371361 -1.04874998 2.62187494 0 0 Z " fill="#2F83AF" transform="translate(156,66)"/>
<path d="M0 0 C-0.33 3.3 -0.66 6.6 -1 10 C-2.32 10.33 -3.64 10.66 -5 11 C-4.54177532 7.53058454 -4.10868317 4.32604951 -3 1 C-1 0 -1 0 0 0 Z " fill="#F5AE96" transform="translate(158,56)"/>
<path d="M0 0 C0 1.98 0 3.96 0 6 C-2.64 6 -5.28 6 -8 6 C-3.38461538 0 -3.38461538 0 0 0 Z " fill="#0D71A7" transform="translate(187,78)"/>
<path d="M0 0 C0.433125 0.495 0.86625 0.99 1.3125 1.5 C2.99740483 3.33218192 2.99740483 3.33218192 6 3 C5.814375 3.61875 5.62875 4.2375 5.4375 4.875 C4.76313824 7.04160178 4.76313824 7.04160178 6 9 C3.36 9.33 0.72 9.66 -2 10 C-2 9.34 -2 8.68 -2 8 C-0.68 8 0.64 8 2 8 C1.67 7.4225 1.34 6.845 1 6.25 C0 4 0 4 0 0 Z " fill="#C6D3D8" transform="translate(253,135)"/>
<path d="M0 0 C0.33 0 0.66 0 1 0 C1 1.65 1 3.3 1 5 C5.95 5 10.9 5 16 5 C16 5.33 16 5.66 16 6 C5.605 6.495 5.605 6.495 -5 7 C-3.68 5.68 -2.36 4.36 -1 3 C-0.67 2.01 -0.34 1.02 0 0 Z " fill="#C8DBE2" transform="translate(140,148)"/>
<path d="M0 0 C0.33 0 0.66 0 1 0 C1 1.65 1 3.3 1 5 C2.98 5 4.96 5 7 5 C6.67 5.99 6.34 6.98 6 8 C2.9375 9.1875 2.9375 9.1875 0 10 C0 6.7 0 3.4 0 0 Z " fill="#2A789E" transform="translate(135,138)"/>
<path d="M0 0 C3.3 0 6.6 0 10 0 C10 0.99 10 1.98 10 3 C8.72125 3.061875 7.4425 3.12375 6.125 3.1875 C5.40570313 3.22230469 4.68640625 3.25710937 3.9453125 3.29296875 C3.30335938 3.19628906 2.66140625 3.09960938 2 3 C1.34 2.01 0.68 1.02 0 0 Z " fill="#E8E8E8" transform="translate(240,34)"/>
<path d="M0 0 C2.46800047 1.15173355 4.04783565 2.04783565 6 4 C6.66 4.33 7.32 4.66 8 5 C6.35 6.65 4.7 8.3 3 10 C2.690625 8.906875 2.38125 7.81375 2.0625 6.6875 C1.41662103 4.44592006 0.7376883 2.2130649 0 0 Z " fill="#ABCBD8" transform="translate(250,105)"/>
<path d="M0 0 C1.32 0 2.64 0 4 0 C4 1.98 4 3.96 4 6 C4.66 6.33 5.32 6.66 6 7 C5.67 7.99 5.34 8.98 5 10 C3.68 9.34 2.36 8.68 1 8 C1.66 6.02 2.32 4.04 3 2 C1.68 1.67 0.36 1.34 -1 1 C-0.67 0.67 -0.34 0.34 0 0 Z " fill="#0C77A8" transform="translate(147,51)"/>
<path d="M0 0 C1.0625 1.875 1.0625 1.875 2 4 C1.67 4.66 1.34 5.32 1 6 C0.01 5.67 -0.98 5.34 -2 5 C-2 4.34 -2 3.68 -2 3 C-2.99 3 -3.98 3 -5 3 C-5.33 3.99 -5.66 4.98 -6 6 C-6.33 4.68 -6.66 3.36 -7 2 C-4.69 2 -2.38 2 0 2 C0 1.34 0 0.68 0 0 Z " fill="#AD887F" transform="translate(160,33)"/>
<path d="M0 0 C1.65 0.33 3.3 0.66 5 1 C5 1.99 5 2.98 5 4 C3.02 4.33 1.04 4.66 -1 5 C-0.67 3.35 -0.34 1.7 0 0 Z " fill="#0A88C6" transform="translate(157,147)"/>
<path d="M0 0 C0 0.66 0 1.32 0 2 C-2.31 2 -4.62 2 -7 2 C-7.33 1.01 -7.66 0.02 -8 -1 C-4.37673261 -2.2077558 -3.35853631 -1.54311128 0 0 Z " fill="#E7B1A4" transform="translate(193,75)"/>
<path d="M0 0 C0.33 0.66 0.66 1.32 1 2 C0.319375 3.0828125 0.319375 3.0828125 -0.375 4.1875 C-2.28170223 7.48756155 -2.63111435 10.2373664 -3 14 C-3.33 14 -3.66 14 -4 14 C-4.63019694 5.96498906 -4.63019694 5.96498906 -2 1.9375 C-1.34 1.298125 -0.68 0.65875 0 0 Z " fill="#A7ACB8" transform="translate(169,60)"/>
<path d="M0 0 C0 1.98 0 3.96 0 6 C-1.32 6 -2.64 6 -4 6 C-4 4.35 -4 2.7 -4 1 C-1 0 -1 0 0 0 Z " fill="#E3E6E6" transform="translate(180,147)"/>
<path d="M0 0 C2.02054804 1.64169528 4.02043058 3.30911778 6 5 C6 5.33 6 5.66 6 6 C3.36 6 0.72 6 -2 6 C-1.34 5.34 -0.68 4.68 0 4 C0 2.68 0 1.36 0 0 Z " fill="#3692B9" transform="translate(235,79)"/>
<path d="M0 0 C0.99 1.32 1.98 2.64 3 4 C2.01 4.99 1.02 5.98 0 7 C0 4.69 0 2.38 0 0 Z M-2 7 C0.31 7.66 2.62 8.32 5 9 C1.98968256 9.93423645 1.13349732 10.04449911 -2 9 C-2 8.34 -2 7.68 -2 7 Z " fill="#F3BDAC" transform="translate(173,65)"/>
<path d="M0 0 C1.32 0 2.64 0 4 0 C4 1.65 4 3.3 4 5 C2.68 5 1.36 5 0 5 C0 3.35 0 1.7 0 0 Z " fill="#BDE5EE" transform="translate(226,144)"/>
<path d="M0 0 C1 3 1 3 0.0625 5.1875 C-0.4634375 6.0846875 -0.4634375 6.0846875 -1 7 C-4 3.25 -4 3.25 -4 1 C-2 0 -2 0 0 0 Z " fill="#BDD5E4" transform="translate(253,128)"/>
<path d="M0 0 C1.32 0 2.64 0 4 0 C4 1.65 4 3.3 4 5 C2.68 5 1.36 5 0 5 C0 3.35 0 1.7 0 0 Z " fill="#C3ECF6" transform="translate(227,104)"/>
<path d="M0 0 C1.37562854 1.28965176 2.70766393 2.62689293 4 4 C4 4.66 4 5.32 4 6 C2.02 5.34 0.04 4.68 -2 4 C-2 3.01 -2 2.02 -2 1 C-1.34 0.67 -0.68 0.34 0 0 Z " fill="#DDEDF2" transform="translate(164,147)"/>
<path d="M0 0 C0.66 0 1.32 0 2 0 C2 2.31 2 4.62 2 7 C1.01 7 0.02 7 -1 7 C-0.67 4.69 -0.34 2.38 0 0 Z " fill="#283E47" transform="translate(153,49)"/>
<path d="M0 0 C0.99 0 1.98 0 3 0 C3 1.98 3 3.96 3 6 C2.01 6 1.02 6 0 6 C0 4.02 0 2.04 0 0 Z " fill="#E9E9E9" transform="translate(207,37)"/>
</svg>
