<svg width="25" height="25" viewBox="0 0 25 25" fill="none" xmlns="http://www.w3.org/2000/svg">
<path d="M11.7166 4.89183C11.9486 4.37122 12.0647 4.11091 12.2263 4.03075C12.3666 3.9611 12.5314 3.9611 12.6717 4.03075C12.8333 4.11091 12.9494 4.37122 13.1814 4.89183L15.0298 9.03858C15.0985 9.19248 15.1328 9.26943 15.1859 9.32836C15.2328 9.38051 15.2902 9.42222 15.3543 9.45076C15.4268 9.48304 15.5106 9.49188 15.6782 9.50956L20.1931 9.9861C20.76 10.0459 21.0434 10.0758 21.1696 10.2047C21.2791 10.3167 21.33 10.4735 21.3072 10.6285C21.2809 10.8069 21.0692 10.9976 20.6458 11.3792L17.2731 14.4186C17.148 14.5314 17.0854 14.5878 17.0458 14.6565C17.0107 14.7173 16.9888 14.7848 16.9814 14.8546C16.9731 14.9335 16.9906 15.0159 17.0255 15.1807L17.9676 19.622C18.0859 20.1796 18.145 20.4583 18.0614 20.6181C17.9887 20.757 17.8554 20.8539 17.7009 20.88C17.5231 20.9101 17.2762 20.7678 16.7825 20.483L12.8497 18.2146C12.7037 18.1304 12.6307 18.0884 12.5532 18.0719C12.4845 18.0574 12.4135 18.0574 12.3449 18.0719C12.2673 18.0884 12.1943 18.1304 12.0484 18.2146L8.11557 20.483C7.62182 20.7678 7.37495 20.9101 7.19712 20.88C7.04264 20.8539 6.90928 20.757 6.83667 20.6181C6.75308 20.4583 6.81221 20.1796 6.93048 19.622L7.87247 15.1807C7.90744 15.0159 7.92492 14.9335 7.91662 14.8546C7.90927 14.7848 7.88735 14.7173 7.85227 14.6565C7.81262 14.5878 7.75003 14.5314 7.62487 14.4186L4.25226 11.3792C3.82885 10.9976 3.61714 10.8069 3.59082 10.6285C3.56796 10.4735 3.61889 10.3167 3.72849 10.2047C3.85467 10.0758 4.13809 10.0459 4.70493 9.9861L9.21991 9.50956C9.38749 9.49188 9.47127 9.48304 9.54372 9.45076C9.60782 9.42222 9.66522 9.38051 9.71219 9.32836C9.76527 9.26943 9.79957 9.19248 9.86818 9.03858L11.7166 4.89183Z" stroke="#EC1D24" stroke-width="1.64025" stroke-linecap="round" stroke-linejoin="round"/>
</svg>
